# Blender 3.6.0
# www.blender.org
mtllib minecraft.mtl
o yellow_wool
v 0.504000 1.008000 0.504000
v -0.504000 1.008000 0.504000
v -0.504000 0.000000 0.504000
v 0.504000 0.000000 0.504000
v 0.504000 1.008000 -0.504000
v -0.504000 1.008000 -0.504000
v -0.504000 0.000000 -0.504000
v 0.504000 0.000000 -0.504000
vn -0.0000 -0.0000 1.0000
vn -0.0000 -0.0000 -1.0000
vn -0.0000 1.0000 -0.0000
vn 1.0000 -0.0000 -0.0000
vn -1.0000 -0.0000 -0.0000
vt 0.000000 1.000000
vt 1.000000 0.000000
vt 1.000000 1.000000
vt 0.000000 0.000000
s 0
g yellow_wool_yellow_wool.006
usemtl yellow_wool.006
f 7/1/3 4/2/3 8/3/3
f 7/1/3 3/4/3 4/2/3
g yellow_wool_yellow_wool
usemtl yellow_wool
f 1/1/3 6/2/3 2/3/3
f 1/1/3 5/4/3 6/2/3
g yellow_wool_yellow_wool.001
usemtl yellow_wool.001
f 2/1/1 4/2/1 1/3/1
f 2/1/1 3/4/1 4/2/1
g yellow_wool_yellow_wool.002
usemtl yellow_wool.002
f 6/1/5 3/2/5 2/3/5
f 6/1/5 7/4/5 3/2/5
g yellow_wool_yellow_wool.003
usemtl yellow_wool.003
f 5/1/2 7/2/2 6/3/2
f 5/1/2 8/4/2 7/2/2
g yellow_wool_yellow_wool.004
usemtl yellow_wool.004
f 1/1/4 8/2/4 5/3/4
f 1/1/4 4/4/4 8/2/4
